<mxfile host="Electron" agent="Mozilla/5.0 (X11; Linux x86_64) AppleWebKit/537.36 (KHTML, like Gecko) draw.io/24.7.17 Chrome/128.0.6613.36 Electron/32.0.1 Safari/537.36" version="24.7.17">
  <diagram name="Страница — 1" id="KPkVAoSbh-pYR2HS_Bzt">
    <mxGraphModel dx="1591" dy="2278" grid="0" gridSize="10" guides="1" tooltips="1" connect="1" arrows="1" fold="1" page="1" pageScale="1" pageWidth="827" pageHeight="1169" math="0" shadow="0">
      <root>
        <mxCell id="0" />
        <mxCell id="1" parent="0" />
        <mxCell id="GU7tplVxRM9TkL9zqMjE-45" value="" style="group;movable=1;resizable=1;rotatable=1;deletable=1;editable=1;locked=0;connectable=1;" vertex="1" connectable="0" parent="1">
          <mxGeometry x="19" y="-145" width="788" height="455.63" as="geometry" />
        </mxCell>
        <mxCell id="GU7tplVxRM9TkL9zqMjE-46" value="" style="rounded=0;whiteSpace=wrap;html=1;fillColor=none;movable=0;resizable=0;rotatable=0;deletable=0;editable=0;locked=1;connectable=0;" vertex="1" parent="GU7tplVxRM9TkL9zqMjE-45">
          <mxGeometry y="2.5958939557975393e-15" width="788" height="505.63" as="geometry" />
        </mxCell>
        <mxCell id="GU7tplVxRM9TkL9zqMjE-47" value="&lt;h1 style=&quot;margin-top: 0px;&quot;&gt;User Interface layer&lt;/h1&gt;" style="text;html=1;whiteSpace=wrap;overflow=hidden;rounded=0;" vertex="1" parent="GU7tplVxRM9TkL9zqMjE-45">
          <mxGeometry width="238.53968253968253" height="88.54348178137654" as="geometry" />
        </mxCell>
        <mxCell id="5QHpmhcbH-uLmBv86-cf-95" style="edgeStyle=orthogonalEdgeStyle;rounded=0;orthogonalLoop=1;jettySize=auto;html=1;entryX=0.5;entryY=0;entryDx=0;entryDy=0;endSize=12;endArrow=block;endFill=0;dashed=1;" parent="1" source="5QHpmhcbH-uLmBv86-cf-79" target="5QHpmhcbH-uLmBv86-cf-83" edge="1">
          <mxGeometry relative="1" as="geometry" />
        </mxCell>
        <mxCell id="5QHpmhcbH-uLmBv86-cf-79" value="&lt;div&gt;&amp;nbsp;EditorDatabaseAccess&lt;/div&gt;&lt;div&gt;&lt;br&gt;&lt;/div&gt;" style="swimlane;fontStyle=1;align=center;verticalAlign=top;childLayout=stackLayout;horizontal=1;startSize=26;horizontalStack=0;resizeParent=1;resizeParentMax=0;resizeLast=0;collapsible=1;marginBottom=0;whiteSpace=wrap;html=1;movable=1;resizable=1;rotatable=1;deletable=1;editable=1;locked=0;connectable=1;" parent="1" vertex="1">
          <mxGeometry x="458" y="679" width="252" height="164" as="geometry" />
        </mxCell>
        <mxCell id="5QHpmhcbH-uLmBv86-cf-80" value="- editorDatabase: Database" style="text;strokeColor=none;fillColor=none;align=left;verticalAlign=top;spacingLeft=4;spacingRight=4;overflow=hidden;rotatable=0;points=[[0,0.5],[1,0.5]];portConstraint=eastwest;whiteSpace=wrap;html=1;" parent="5QHpmhcbH-uLmBv86-cf-79" vertex="1">
          <mxGeometry y="26" width="252" height="26" as="geometry" />
        </mxCell>
        <mxCell id="5QHpmhcbH-uLmBv86-cf-81" value="" style="line;strokeWidth=1;fillColor=none;align=left;verticalAlign=middle;spacingTop=-1;spacingLeft=3;spacingRight=3;rotatable=0;labelPosition=right;points=[];portConstraint=eastwest;strokeColor=inherit;" parent="5QHpmhcbH-uLmBv86-cf-79" vertex="1">
          <mxGeometry y="52" width="252" height="8" as="geometry" />
        </mxCell>
        <mxCell id="5QHpmhcbH-uLmBv86-cf-82" value="&lt;div&gt;+ getAllModels(): Collection&amp;lt;Model3D&amp;gt;&lt;/div&gt;&lt;div&gt;&lt;br&gt;&lt;/div&gt;" style="text;strokeColor=none;fillColor=none;align=left;verticalAlign=top;spacingLeft=4;spacingRight=4;overflow=hidden;rotatable=0;points=[[0,0.5],[1,0.5]];portConstraint=eastwest;whiteSpace=wrap;html=1;" parent="5QHpmhcbH-uLmBv86-cf-79" vertex="1">
          <mxGeometry y="60" width="252" height="26" as="geometry" />
        </mxCell>
        <mxCell id="5QHpmhcbH-uLmBv86-cf-103" value="&lt;div&gt;&lt;span style=&quot;background-color: initial;&quot;&gt;+ getAllTextures(): Collection&amp;lt;Texture&amp;gt;&lt;/span&gt;&lt;br&gt;&lt;/div&gt;&lt;div&gt;&lt;br&gt;&lt;/div&gt;" style="text;strokeColor=none;fillColor=none;align=left;verticalAlign=top;spacingLeft=4;spacingRight=4;overflow=hidden;rotatable=0;points=[[0,0.5],[1,0.5]];portConstraint=eastwest;whiteSpace=wrap;html=1;" parent="5QHpmhcbH-uLmBv86-cf-79" vertex="1">
          <mxGeometry y="86" width="252" height="26" as="geometry" />
        </mxCell>
        <mxCell id="5QHpmhcbH-uLmBv86-cf-104" value="&lt;div&gt;&lt;span style=&quot;background-color: initial;&quot;&gt;+ addEntity(Entity): void&lt;/span&gt;&lt;/div&gt;" style="text;strokeColor=none;fillColor=none;align=left;verticalAlign=top;spacingLeft=4;spacingRight=4;overflow=hidden;rotatable=0;points=[[0,0.5],[1,0.5]];portConstraint=eastwest;whiteSpace=wrap;html=1;" parent="5QHpmhcbH-uLmBv86-cf-79" vertex="1">
          <mxGeometry y="112" width="252" height="26" as="geometry" />
        </mxCell>
        <mxCell id="5QHpmhcbH-uLmBv86-cf-105" value="&lt;div&gt;&lt;span style=&quot;background-color: initial;&quot;&gt;+ removeEntity(Entity): void&lt;/span&gt;&lt;/div&gt;" style="text;strokeColor=none;fillColor=none;align=left;verticalAlign=top;spacingLeft=4;spacingRight=4;overflow=hidden;rotatable=0;points=[[0,0.5],[1,0.5]];portConstraint=eastwest;whiteSpace=wrap;html=1;" parent="5QHpmhcbH-uLmBv86-cf-79" vertex="1">
          <mxGeometry y="138" width="252" height="26" as="geometry" />
        </mxCell>
        <mxCell id="5QHpmhcbH-uLmBv86-cf-83" value="«interface»&lt;br&gt;&lt;span style=&quot;background-color: initial;&quot;&gt;&lt;b&gt;DatabaseAccess&lt;/b&gt;&lt;/span&gt;" style="html=1;whiteSpace=wrap;" parent="1" vertex="1">
          <mxGeometry x="529" y="886.0000000000001" width="110" height="50" as="geometry" />
        </mxCell>
        <mxCell id="5QHpmhcbH-uLmBv86-cf-84" value="«interface»&lt;br&gt;&lt;b&gt;Entity&lt;/b&gt;" style="html=1;whiteSpace=wrap;" parent="1" vertex="1">
          <mxGeometry x="61" y="789.44" width="110" height="50" as="geometry" />
        </mxCell>
        <mxCell id="5QHpmhcbH-uLmBv86-cf-85" value="&lt;div&gt;Model3D&lt;br&gt;&lt;/div&gt;" style="swimlane;fontStyle=1;align=center;verticalAlign=top;childLayout=stackLayout;horizontal=1;startSize=26;horizontalStack=0;resizeParent=1;resizeParentMax=0;resizeLast=0;collapsible=1;marginBottom=0;whiteSpace=wrap;html=1;" parent="1" vertex="1">
          <mxGeometry x="231" y="726.0000000000001" width="160" height="86" as="geometry" />
        </mxCell>
        <mxCell id="5QHpmhcbH-uLmBv86-cf-86" value="+ field: type" style="text;strokeColor=none;fillColor=none;align=left;verticalAlign=top;spacingLeft=4;spacingRight=4;overflow=hidden;rotatable=0;points=[[0,0.5],[1,0.5]];portConstraint=eastwest;whiteSpace=wrap;html=1;" parent="5QHpmhcbH-uLmBv86-cf-85" vertex="1">
          <mxGeometry y="26" width="160" height="26" as="geometry" />
        </mxCell>
        <mxCell id="5QHpmhcbH-uLmBv86-cf-87" value="" style="line;strokeWidth=1;fillColor=none;align=left;verticalAlign=middle;spacingTop=-1;spacingLeft=3;spacingRight=3;rotatable=0;labelPosition=right;points=[];portConstraint=eastwest;strokeColor=inherit;" parent="5QHpmhcbH-uLmBv86-cf-85" vertex="1">
          <mxGeometry y="52" width="160" height="8" as="geometry" />
        </mxCell>
        <mxCell id="5QHpmhcbH-uLmBv86-cf-88" value="+ method(type): type" style="text;strokeColor=none;fillColor=none;align=left;verticalAlign=top;spacingLeft=4;spacingRight=4;overflow=hidden;rotatable=0;points=[[0,0.5],[1,0.5]];portConstraint=eastwest;whiteSpace=wrap;html=1;" parent="5QHpmhcbH-uLmBv86-cf-85" vertex="1">
          <mxGeometry y="60" width="160" height="26" as="geometry" />
        </mxCell>
        <mxCell id="5QHpmhcbH-uLmBv86-cf-99" style="edgeStyle=orthogonalEdgeStyle;rounded=0;orthogonalLoop=1;jettySize=auto;html=1;entryX=0;entryY=0.5;entryDx=0;entryDy=0;endArrow=diamondThin;endFill=0;endSize=12;" parent="1" source="5QHpmhcbH-uLmBv86-cf-89" target="5QHpmhcbH-uLmBv86-cf-23" edge="1">
          <mxGeometry relative="1" as="geometry" />
        </mxCell>
        <mxCell id="5QHpmhcbH-uLmBv86-cf-89" value="&lt;div&gt;Texture&lt;br&gt;&lt;/div&gt;" style="swimlane;fontStyle=1;align=center;verticalAlign=top;childLayout=stackLayout;horizontal=1;startSize=26;horizontalStack=0;resizeParent=1;resizeParentMax=0;resizeLast=0;collapsible=1;marginBottom=0;whiteSpace=wrap;html=1;" parent="1" vertex="1">
          <mxGeometry x="231" y="826.8900000000001" width="160" height="86" as="geometry" />
        </mxCell>
        <mxCell id="5QHpmhcbH-uLmBv86-cf-90" value="+ field: type" style="text;strokeColor=none;fillColor=none;align=left;verticalAlign=top;spacingLeft=4;spacingRight=4;overflow=hidden;rotatable=0;points=[[0,0.5],[1,0.5]];portConstraint=eastwest;whiteSpace=wrap;html=1;" parent="5QHpmhcbH-uLmBv86-cf-89" vertex="1">
          <mxGeometry y="26" width="160" height="26" as="geometry" />
        </mxCell>
        <mxCell id="5QHpmhcbH-uLmBv86-cf-91" value="" style="line;strokeWidth=1;fillColor=none;align=left;verticalAlign=middle;spacingTop=-1;spacingLeft=3;spacingRight=3;rotatable=0;labelPosition=right;points=[];portConstraint=eastwest;strokeColor=inherit;" parent="5QHpmhcbH-uLmBv86-cf-89" vertex="1">
          <mxGeometry y="52" width="160" height="8" as="geometry" />
        </mxCell>
        <mxCell id="5QHpmhcbH-uLmBv86-cf-92" value="+ method(type): type" style="text;strokeColor=none;fillColor=none;align=left;verticalAlign=top;spacingLeft=4;spacingRight=4;overflow=hidden;rotatable=0;points=[[0,0.5],[1,0.5]];portConstraint=eastwest;whiteSpace=wrap;html=1;" parent="5QHpmhcbH-uLmBv86-cf-89" vertex="1">
          <mxGeometry y="60" width="160" height="26" as="geometry" />
        </mxCell>
        <mxCell id="5QHpmhcbH-uLmBv86-cf-93" style="edgeStyle=orthogonalEdgeStyle;rounded=0;orthogonalLoop=1;jettySize=auto;html=1;entryX=1;entryY=0.5;entryDx=0;entryDy=0;endArrow=block;endFill=0;endSize=12;dashed=1;" parent="1" source="5QHpmhcbH-uLmBv86-cf-86" target="5QHpmhcbH-uLmBv86-cf-84" edge="1">
          <mxGeometry relative="1" as="geometry" />
        </mxCell>
        <mxCell id="5QHpmhcbH-uLmBv86-cf-94" style="edgeStyle=orthogonalEdgeStyle;rounded=0;orthogonalLoop=1;jettySize=auto;html=1;entryX=1;entryY=0.5;entryDx=0;entryDy=0;endArrow=block;endFill=0;endSize=12;dashed=1;" parent="1" source="5QHpmhcbH-uLmBv86-cf-90" target="5QHpmhcbH-uLmBv86-cf-84" edge="1">
          <mxGeometry relative="1" as="geometry" />
        </mxCell>
        <mxCell id="5QHpmhcbH-uLmBv86-cf-98" style="edgeStyle=orthogonalEdgeStyle;rounded=0;orthogonalLoop=1;jettySize=auto;html=1;entryX=0;entryY=0.5;entryDx=0;entryDy=0;endArrow=diamondThin;endFill=0;endSize=12;exitX=1.003;exitY=0.172;exitDx=0;exitDy=0;exitPerimeter=0;" parent="1" source="5QHpmhcbH-uLmBv86-cf-85" target="5QHpmhcbH-uLmBv86-cf-23" edge="1">
          <mxGeometry relative="1" as="geometry">
            <Array as="points">
              <mxPoint x="409" y="741" />
              <mxPoint x="409" y="934" />
              <mxPoint x="321" y="934" />
              <mxPoint x="321" y="1021" />
            </Array>
          </mxGeometry>
        </mxCell>
        <mxCell id="5QHpmhcbH-uLmBv86-cf-106" style="edgeStyle=orthogonalEdgeStyle;rounded=0;orthogonalLoop=1;jettySize=auto;html=1;entryX=1;entryY=0.5;entryDx=0;entryDy=0;endArrow=open;endFill=0;endSize=12;" parent="1" source="5QHpmhcbH-uLmBv86-cf-103" target="5QHpmhcbH-uLmBv86-cf-25" edge="1">
          <mxGeometry relative="1" as="geometry">
            <Array as="points">
              <mxPoint x="745" y="778" />
              <mxPoint x="745" y="1081" />
            </Array>
          </mxGeometry>
        </mxCell>
        <mxCell id="5QHpmhcbH-uLmBv86-cf-109" style="edgeStyle=orthogonalEdgeStyle;rounded=0;orthogonalLoop=1;jettySize=auto;html=1;entryX=1;entryY=0.5;entryDx=0;entryDy=0;endArrow=open;endFill=0;endSize=12;" parent="1" source="5QHpmhcbH-uLmBv86-cf-82" target="5QHpmhcbH-uLmBv86-cf-25" edge="1">
          <mxGeometry relative="1" as="geometry">
            <Array as="points">
              <mxPoint x="745" y="752" />
              <mxPoint x="745" y="1081" />
            </Array>
          </mxGeometry>
        </mxCell>
        <mxCell id="5QHpmhcbH-uLmBv86-cf-117" value="«interface»&lt;br&gt;&lt;b&gt;BusinessLogicalLayer&lt;/b&gt;" style="html=1;whiteSpace=wrap;" parent="1" vertex="1">
          <mxGeometry x="57" y="425" width="153" height="50" as="geometry" />
        </mxCell>
        <mxCell id="5QHpmhcbH-uLmBv86-cf-118" style="edgeStyle=orthogonalEdgeStyle;rounded=0;orthogonalLoop=1;jettySize=auto;html=1;entryX=1;entryY=0.5;entryDx=0;entryDy=0;endArrow=block;endFill=0;dashed=1;endSize=12;exitX=0.002;exitY=0.099;exitDx=0;exitDy=0;exitPerimeter=0;" parent="1" source="5QHpmhcbH-uLmBv86-cf-110" target="5QHpmhcbH-uLmBv86-cf-117" edge="1">
          <mxGeometry relative="1" as="geometry" />
        </mxCell>
        <mxCell id="5QHpmhcbH-uLmBv86-cf-120" style="edgeStyle=orthogonalEdgeStyle;rounded=0;orthogonalLoop=1;jettySize=auto;html=1;endSize=12;endArrow=open;endFill=0;" parent="1" source="5QHpmhcbH-uLmBv86-cf-114" target="5QHpmhcbH-uLmBv86-cf-103" edge="1">
          <mxGeometry relative="1" as="geometry">
            <mxPoint x="458" y="811" as="targetPoint" />
            <Array as="points">
              <mxPoint x="299" y="536" />
              <mxPoint x="299" y="615" />
              <mxPoint x="424" y="615" />
              <mxPoint x="424" y="779" />
            </Array>
          </mxGeometry>
        </mxCell>
        <mxCell id="5QHpmhcbH-uLmBv86-cf-121" style="edgeStyle=orthogonalEdgeStyle;rounded=0;orthogonalLoop=1;jettySize=auto;html=1;entryX=0;entryY=0.5;entryDx=0;entryDy=0;endArrow=open;endFill=0;endSize=12;exitX=0;exitY=0.5;exitDx=0;exitDy=0;" parent="1" source="5QHpmhcbH-uLmBv86-cf-113" target="5QHpmhcbH-uLmBv86-cf-82" edge="1">
          <mxGeometry relative="1" as="geometry">
            <mxPoint x="458" y="785.0000000000005" as="targetPoint" />
            <Array as="points">
              <mxPoint x="316" y="562" />
              <mxPoint x="316" y="592" />
              <mxPoint x="436" y="592" />
              <mxPoint x="436" y="752" />
            </Array>
          </mxGeometry>
        </mxCell>
        <mxCell id="5QHpmhcbH-uLmBv86-cf-131" style="edgeStyle=orthogonalEdgeStyle;rounded=0;orthogonalLoop=1;jettySize=auto;html=1;endArrow=block;endFill=0;dashed=1;endSize=12;" parent="1" source="5QHpmhcbH-uLmBv86-cf-123" target="5QHpmhcbH-uLmBv86-cf-130" edge="1">
          <mxGeometry relative="1" as="geometry" />
        </mxCell>
        <mxCell id="5QHpmhcbH-uLmBv86-cf-146" style="edgeStyle=orthogonalEdgeStyle;rounded=0;orthogonalLoop=1;jettySize=auto;html=1;entryX=0.5;entryY=0;entryDx=0;entryDy=0;endArrow=open;endFill=0;dashed=1;endSize=12;" parent="1" source="5QHpmhcbH-uLmBv86-cf-111" target="5QHpmhcbH-uLmBv86-cf-79" edge="1">
          <mxGeometry relative="1" as="geometry">
            <Array as="points">
              <mxPoint x="628" y="450" />
              <mxPoint x="628" y="617" />
              <mxPoint x="584" y="617" />
            </Array>
          </mxGeometry>
        </mxCell>
        <mxCell id="5QHpmhcbH-uLmBv86-cf-156" style="edgeStyle=orthogonalEdgeStyle;rounded=0;orthogonalLoop=1;jettySize=auto;html=1;entryX=0.5;entryY=0;entryDx=0;entryDy=0;endArrow=open;endFill=0;dashed=1;endSize=12;" parent="1" source="5QHpmhcbH-uLmBv86-cf-80" target="5QHpmhcbH-uLmBv86-cf-22" edge="1">
          <mxGeometry relative="1" as="geometry">
            <Array as="points">
              <mxPoint x="416" y="718" />
              <mxPoint x="416" y="935" />
              <mxPoint x="462" y="935" />
            </Array>
          </mxGeometry>
        </mxCell>
        <mxCell id="5QHpmhcbH-uLmBv86-cf-157" style="edgeStyle=orthogonalEdgeStyle;rounded=0;orthogonalLoop=1;jettySize=auto;html=1;entryX=0.919;entryY=0.014;entryDx=0;entryDy=0;entryPerimeter=0;endSize=12;endArrow=open;endFill=0;dashed=1;" parent="1" source="5QHpmhcbH-uLmBv86-cf-127" target="5QHpmhcbH-uLmBv86-cf-79" edge="1">
          <mxGeometry relative="1" as="geometry">
            <Array as="points">
              <mxPoint x="786" y="151" />
              <mxPoint x="786" y="631" />
              <mxPoint x="690" y="631" />
            </Array>
          </mxGeometry>
        </mxCell>
        <mxCell id="5QHpmhcbH-uLmBv86-cf-158" style="edgeStyle=orthogonalEdgeStyle;rounded=0;orthogonalLoop=1;jettySize=auto;html=1;entryX=0.863;entryY=-0.005;entryDx=0;entryDy=0;entryPerimeter=0;endArrow=open;endFill=0;dashed=1;endSize=12;" parent="1" source="5QHpmhcbH-uLmBv86-cf-128" target="5QHpmhcbH-uLmBv86-cf-22" edge="1">
          <mxGeometry relative="1" as="geometry">
            <mxPoint x="809.5" y="906.25" as="targetPoint" />
            <Array as="points">
              <mxPoint x="796" y="123" />
              <mxPoint x="796" y="963" />
              <mxPoint x="524" y="963" />
            </Array>
          </mxGeometry>
        </mxCell>
        <mxCell id="5QHpmhcbH-uLmBv86-cf-18" value="ProjectFile" style="swimlane;fontStyle=1;align=center;verticalAlign=top;childLayout=stackLayout;horizontal=1;startSize=26;horizontalStack=0;resizeParent=1;resizeParentMax=0;resizeLast=0;collapsible=1;marginBottom=0;whiteSpace=wrap;html=1;" parent="1" vertex="1">
          <mxGeometry x="87.00222873900293" y="1025" width="159.5307917888563" height="86" as="geometry" />
        </mxCell>
        <mxCell id="5QHpmhcbH-uLmBv86-cf-19" value="- fileName: String" style="text;strokeColor=none;fillColor=none;align=left;verticalAlign=top;spacingLeft=4;spacingRight=4;overflow=hidden;rotatable=0;points=[[0,0.5],[1,0.5]];portConstraint=eastwest;whiteSpace=wrap;html=1;" parent="5QHpmhcbH-uLmBv86-cf-18" vertex="1">
          <mxGeometry y="26" width="159.5307917888563" height="26" as="geometry" />
        </mxCell>
        <mxCell id="5QHpmhcbH-uLmBv86-cf-20" value="" style="line;strokeWidth=1;fillColor=none;align=left;verticalAlign=middle;spacingTop=-1;spacingLeft=3;spacingRight=3;rotatable=0;labelPosition=right;points=[];portConstraint=eastwest;strokeColor=inherit;" parent="5QHpmhcbH-uLmBv86-cf-18" vertex="1">
          <mxGeometry y="52" width="159.5307917888563" height="8" as="geometry" />
        </mxCell>
        <mxCell id="5QHpmhcbH-uLmBv86-cf-21" value="+ method(type): type" style="text;strokeColor=none;fillColor=none;align=left;verticalAlign=top;spacingLeft=4;spacingRight=4;overflow=hidden;rotatable=0;points=[[0,0.5],[1,0.5]];portConstraint=eastwest;whiteSpace=wrap;html=1;" parent="5QHpmhcbH-uLmBv86-cf-18" vertex="1">
          <mxGeometry y="60" width="159.5307917888563" height="26" as="geometry" />
        </mxCell>
        <mxCell id="5QHpmhcbH-uLmBv86-cf-27" style="edgeStyle=orthogonalEdgeStyle;rounded=0;orthogonalLoop=1;jettySize=auto;html=1;entryX=0;entryY=0.5;entryDx=0;entryDy=0;endArrow=block;endFill=0;endSize=12;dashed=1;exitX=1.004;exitY=0.07;exitDx=0;exitDy=0;exitPerimeter=0;" parent="1" source="5QHpmhcbH-uLmBv86-cf-22" target="5QHpmhcbH-uLmBv86-cf-26" edge="1">
          <mxGeometry relative="1" as="geometry" />
        </mxCell>
        <mxCell id="5QHpmhcbH-uLmBv86-cf-28" value="" style="edgeStyle=orthogonalEdgeStyle;rounded=0;orthogonalLoop=1;jettySize=auto;html=1;entryX=1;entryY=0.5;entryDx=0;entryDy=0;endArrow=open;endFill=0;dashed=1;endSize=12;" parent="1" source="5QHpmhcbH-uLmBv86-cf-22" target="5QHpmhcbH-uLmBv86-cf-19" edge="1">
          <mxGeometry relative="1" as="geometry" />
        </mxCell>
        <mxCell id="5QHpmhcbH-uLmBv86-cf-22" value="EditorDataBase" style="swimlane;fontStyle=1;align=center;verticalAlign=top;childLayout=stackLayout;horizontal=1;startSize=26;horizontalStack=0;resizeParent=1;resizeParentMax=0;resizeLast=0;collapsible=1;marginBottom=0;whiteSpace=wrap;html=1;" parent="1" vertex="1">
          <mxGeometry x="376" y="982" width="172" height="164" as="geometry" />
        </mxCell>
        <mxCell id="5QHpmhcbH-uLmBv86-cf-23" value="- entities: Collection&amp;lt;Entity&amp;gt;" style="text;strokeColor=none;fillColor=none;align=left;verticalAlign=top;spacingLeft=4;spacingRight=4;overflow=hidden;rotatable=0;points=[[0,0.5],[1,0.5]];portConstraint=eastwest;whiteSpace=wrap;html=1;" parent="5QHpmhcbH-uLmBv86-cf-22" vertex="1">
          <mxGeometry y="26" width="172" height="26" as="geometry" />
        </mxCell>
        <mxCell id="5QHpmhcbH-uLmBv86-cf-96" value="- projectFile: ProjectFile" style="text;strokeColor=none;fillColor=none;align=left;verticalAlign=top;spacingLeft=4;spacingRight=4;overflow=hidden;rotatable=0;points=[[0,0.5],[1,0.5]];portConstraint=eastwest;whiteSpace=wrap;html=1;" parent="5QHpmhcbH-uLmBv86-cf-22" vertex="1">
          <mxGeometry y="52" width="172" height="26" as="geometry" />
        </mxCell>
        <mxCell id="5QHpmhcbH-uLmBv86-cf-24" value="" style="line;strokeWidth=1;fillColor=none;align=left;verticalAlign=middle;spacingTop=-1;spacingLeft=3;spacingRight=3;rotatable=0;labelPosition=right;points=[];portConstraint=eastwest;strokeColor=inherit;" parent="5QHpmhcbH-uLmBv86-cf-22" vertex="1">
          <mxGeometry y="78" width="172" height="8" as="geometry" />
        </mxCell>
        <mxCell id="5QHpmhcbH-uLmBv86-cf-25" value="+ getAll(): Collection&amp;lt;Entity&amp;gt;" style="text;strokeColor=none;fillColor=none;align=left;verticalAlign=top;spacingLeft=4;spacingRight=4;overflow=hidden;rotatable=0;points=[[0,0.5],[1,0.5]];portConstraint=eastwest;whiteSpace=wrap;html=1;" parent="5QHpmhcbH-uLmBv86-cf-22" vertex="1">
          <mxGeometry y="86" width="172" height="26" as="geometry" />
        </mxCell>
        <mxCell id="5QHpmhcbH-uLmBv86-cf-100" value="+ load(): void" style="text;strokeColor=none;fillColor=none;align=left;verticalAlign=top;spacingLeft=4;spacingRight=4;overflow=hidden;rotatable=0;points=[[0,0.5],[1,0.5]];portConstraint=eastwest;whiteSpace=wrap;html=1;" parent="5QHpmhcbH-uLmBv86-cf-22" vertex="1">
          <mxGeometry y="112" width="172" height="26" as="geometry" />
        </mxCell>
        <mxCell id="5QHpmhcbH-uLmBv86-cf-101" value="+ save(): void" style="text;strokeColor=none;fillColor=none;align=left;verticalAlign=top;spacingLeft=4;spacingRight=4;overflow=hidden;rotatable=0;points=[[0,0.5],[1,0.5]];portConstraint=eastwest;whiteSpace=wrap;html=1;" parent="5QHpmhcbH-uLmBv86-cf-22" vertex="1">
          <mxGeometry y="138" width="172" height="26" as="geometry" />
        </mxCell>
        <mxCell id="5QHpmhcbH-uLmBv86-cf-26" value="«interface»&lt;br&gt;&lt;b&gt;&amp;nbsp;Database&lt;/b&gt;" style="html=1;whiteSpace=wrap;" parent="1" vertex="1">
          <mxGeometry x="602.0012316715543" y="968" width="109.6774193548387" height="50" as="geometry" />
        </mxCell>
        <mxCell id="5QHpmhcbH-uLmBv86-cf-161" value="" style="group" parent="1" vertex="1" connectable="0">
          <mxGeometry x="19" y="954" width="785" height="200" as="geometry" />
        </mxCell>
        <mxCell id="5QHpmhcbH-uLmBv86-cf-1" value="" style="rounded=0;whiteSpace=wrap;html=1;fillColor=none;" parent="5QHpmhcbH-uLmBv86-cf-161" vertex="1">
          <mxGeometry width="785.0000000000001" height="200.00000000000003" as="geometry" />
        </mxCell>
        <mxCell id="5QHpmhcbH-uLmBv86-cf-2" value="&lt;h1 style=&quot;margin-top: 0px;&quot;&gt;Database layer&lt;/h1&gt;" style="text;html=1;whiteSpace=wrap;overflow=hidden;rounded=0;" parent="5QHpmhcbH-uLmBv86-cf-161" vertex="1">
          <mxGeometry width="275.37301587301596" height="42.10526315789474" as="geometry" />
        </mxCell>
        <mxCell id="5QHpmhcbH-uLmBv86-cf-162" value="" style="group" parent="1" vertex="1" connectable="0">
          <mxGeometry x="18" y="660" width="787" height="286" as="geometry" />
        </mxCell>
        <mxCell id="5QHpmhcbH-uLmBv86-cf-76" value="" style="group;movable=1;resizable=1;rotatable=1;deletable=1;editable=1;locked=0;connectable=1;strokeColor=default;strokeWidth=1;container=0;" parent="5QHpmhcbH-uLmBv86-cf-162" vertex="1" connectable="0">
          <mxGeometry width="786.9999999999999" height="286" as="geometry" />
        </mxCell>
        <mxCell id="5QHpmhcbH-uLmBv86-cf-78" value="&lt;h1 style=&quot;margin-top: 0px;&quot;&gt;Data Access layer&lt;/h1&gt;" style="text;html=1;whiteSpace=wrap;overflow=hidden;rounded=0;movable=1;resizable=1;rotatable=1;deletable=1;editable=1;locked=0;connectable=1;" parent="5QHpmhcbH-uLmBv86-cf-162" vertex="1">
          <mxGeometry width="276.07460317460317" height="60.210526315789465" as="geometry" />
        </mxCell>
        <mxCell id="5QHpmhcbH-uLmBv86-cf-123" value="&lt;div&gt;Editor3D&lt;br&gt;&lt;/div&gt;" style="swimlane;fontStyle=1;align=center;verticalAlign=top;childLayout=stackLayout;horizontal=1;startSize=26;horizontalStack=0;resizeParent=1;resizeParentMax=0;resizeLast=0;collapsible=1;marginBottom=0;whiteSpace=wrap;html=1;movable=1;resizable=1;rotatable=1;deletable=1;editable=1;locked=0;connectable=1;" parent="1" vertex="1">
          <mxGeometry x="491" y="20" width="265" height="320" as="geometry" />
        </mxCell>
        <mxCell id="5QHpmhcbH-uLmBv86-cf-124" value="&lt;span style=&quot;text-wrap: nowrap;&quot;&gt;- projectFile: ProjectFile&lt;/span&gt;" style="text;strokeColor=none;fillColor=none;align=left;verticalAlign=top;spacingLeft=4;spacingRight=4;overflow=hidden;rotatable=0;points=[[0,0.5],[1,0.5]];portConstraint=eastwest;whiteSpace=wrap;html=1;" parent="5QHpmhcbH-uLmBv86-cf-123" vertex="1">
          <mxGeometry y="26" width="265" height="26" as="geometry" />
        </mxCell>
        <mxCell id="5QHpmhcbH-uLmBv86-cf-126" value="&lt;div style=&quot;text-wrap: nowrap;&quot;&gt;- businessLogicalLayer: BusinessLogicalLayer&lt;/div&gt;" style="text;strokeColor=none;fillColor=none;align=left;verticalAlign=top;spacingLeft=4;spacingRight=4;overflow=hidden;rotatable=0;points=[[0,0.5],[1,0.5]];portConstraint=eastwest;whiteSpace=wrap;html=1;" parent="5QHpmhcbH-uLmBv86-cf-123" vertex="1">
          <mxGeometry y="52" width="265" height="26" as="geometry" />
        </mxCell>
        <mxCell id="5QHpmhcbH-uLmBv86-cf-128" value="&lt;div&gt;&lt;span style=&quot;text-wrap: nowrap;&quot;&gt;- database: Database&lt;/span&gt;&lt;br&gt;&lt;/div&gt;&lt;div&gt;&lt;br&gt;&lt;/div&gt;" style="text;strokeColor=none;fillColor=none;align=left;verticalAlign=top;spacingLeft=4;spacingRight=4;overflow=hidden;rotatable=0;points=[[0,0.5],[1,0.5]];portConstraint=eastwest;whiteSpace=wrap;html=1;" parent="5QHpmhcbH-uLmBv86-cf-123" vertex="1">
          <mxGeometry y="78" width="265" height="26" as="geometry" />
        </mxCell>
        <mxCell id="5QHpmhcbH-uLmBv86-cf-127" value="&lt;div&gt;&lt;div style=&quot;text-wrap: nowrap;&quot;&gt;- databaseAccess: DatabaseAccess&lt;/div&gt;&lt;/div&gt;" style="text;strokeColor=none;fillColor=none;align=left;verticalAlign=top;spacingLeft=4;spacingRight=4;overflow=hidden;rotatable=0;points=[[0,0.5],[1,0.5]];portConstraint=eastwest;whiteSpace=wrap;html=1;" parent="5QHpmhcbH-uLmBv86-cf-123" vertex="1">
          <mxGeometry y="104" width="265" height="26" as="geometry" />
        </mxCell>
        <mxCell id="5QHpmhcbH-uLmBv86-cf-125" value="" style="line;strokeWidth=1;fillColor=none;align=left;verticalAlign=middle;spacingTop=-1;spacingLeft=3;spacingRight=3;rotatable=0;labelPosition=right;points=[];portConstraint=eastwest;strokeColor=inherit;" parent="5QHpmhcbH-uLmBv86-cf-123" vertex="1">
          <mxGeometry y="130" width="265" height="8" as="geometry" />
        </mxCell>
        <mxCell id="5QHpmhcbH-uLmBv86-cf-144" style="edgeStyle=orthogonalEdgeStyle;rounded=0;orthogonalLoop=1;jettySize=auto;html=1;endArrow=open;endFill=0;endSize=12;" parent="5QHpmhcbH-uLmBv86-cf-123" source="5QHpmhcbH-uLmBv86-cf-129" target="5QHpmhcbH-uLmBv86-cf-137" edge="1">
          <mxGeometry relative="1" as="geometry">
            <mxPoint x="267.5" y="175.5" as="targetPoint" />
            <Array as="points">
              <mxPoint x="291" y="151" />
              <mxPoint x="291" y="170" />
              <mxPoint x="292" y="170" />
              <mxPoint x="292" y="177" />
            </Array>
          </mxGeometry>
        </mxCell>
        <mxCell id="5QHpmhcbH-uLmBv86-cf-129" value="&lt;div&gt;&lt;div&gt;- init(): void&lt;/div&gt;&lt;/div&gt;" style="text;strokeColor=none;fillColor=none;align=left;verticalAlign=top;spacingLeft=4;spacingRight=4;overflow=hidden;rotatable=0;points=[[0,0.5],[1,0.5]];portConstraint=eastwest;whiteSpace=wrap;html=1;" parent="5QHpmhcbH-uLmBv86-cf-123" vertex="1">
          <mxGeometry y="138" width="265" height="26" as="geometry" />
        </mxCell>
        <mxCell id="5QHpmhcbH-uLmBv86-cf-137" value="&lt;div style=&quot;text-wrap: nowrap;&quot;&gt;+ openProject(String): void&lt;/div&gt;&lt;div&gt;&lt;br&gt;&lt;/div&gt;" style="text;strokeColor=none;fillColor=none;align=left;verticalAlign=top;spacingLeft=4;spacingRight=4;overflow=hidden;rotatable=0;points=[[0,0.5],[1,0.5]];portConstraint=eastwest;whiteSpace=wrap;html=1;" parent="5QHpmhcbH-uLmBv86-cf-123" vertex="1">
          <mxGeometry y="164" width="265" height="26" as="geometry" />
        </mxCell>
        <mxCell id="5QHpmhcbH-uLmBv86-cf-138" value="&lt;span style=&quot;text-wrap: nowrap;&quot;&gt;+ showProjectSettings(): void&lt;/span&gt;" style="text;strokeColor=none;fillColor=none;align=left;verticalAlign=top;spacingLeft=4;spacingRight=4;overflow=hidden;rotatable=0;points=[[0,0.5],[1,0.5]];portConstraint=eastwest;whiteSpace=wrap;html=1;" parent="5QHpmhcbH-uLmBv86-cf-123" vertex="1">
          <mxGeometry y="190" width="265" height="26" as="geometry" />
        </mxCell>
        <mxCell id="5QHpmhcbH-uLmBv86-cf-139" value="&lt;span style=&quot;text-wrap: nowrap;&quot;&gt;+ printAllModels(): void&lt;/span&gt;" style="text;strokeColor=none;fillColor=none;align=left;verticalAlign=top;spacingLeft=4;spacingRight=4;overflow=hidden;rotatable=0;points=[[0,0.5],[1,0.5]];portConstraint=eastwest;whiteSpace=wrap;html=1;" parent="5QHpmhcbH-uLmBv86-cf-123" vertex="1">
          <mxGeometry y="216" width="265" height="26" as="geometry" />
        </mxCell>
        <mxCell id="5QHpmhcbH-uLmBv86-cf-140" value="&lt;div&gt;+ printAllTextures(): void&lt;/div&gt;" style="text;strokeColor=none;fillColor=none;align=left;verticalAlign=top;spacingLeft=4;spacingRight=4;overflow=hidden;rotatable=0;points=[[0,0.5],[1,0.5]];portConstraint=eastwest;whiteSpace=wrap;html=1;" parent="5QHpmhcbH-uLmBv86-cf-123" vertex="1">
          <mxGeometry y="242" width="265" height="26" as="geometry" />
        </mxCell>
        <mxCell id="5QHpmhcbH-uLmBv86-cf-141" value="&lt;span style=&quot;text-wrap: nowrap;&quot;&gt;+ renderAll(): void&lt;/span&gt;" style="text;strokeColor=none;fillColor=none;align=left;verticalAlign=top;spacingLeft=4;spacingRight=4;overflow=hidden;rotatable=0;points=[[0,0.5],[1,0.5]];portConstraint=eastwest;whiteSpace=wrap;html=1;" parent="5QHpmhcbH-uLmBv86-cf-123" vertex="1">
          <mxGeometry y="268" width="265" height="26" as="geometry" />
        </mxCell>
        <mxCell id="5QHpmhcbH-uLmBv86-cf-142" value="&lt;span style=&quot;text-wrap: nowrap;&quot;&gt;+ renderModel(int): void&lt;/span&gt;" style="text;strokeColor=none;fillColor=none;align=left;verticalAlign=top;spacingLeft=4;spacingRight=4;overflow=hidden;rotatable=0;points=[[0,0.5],[1,0.5]];portConstraint=eastwest;whiteSpace=wrap;html=1;" parent="5QHpmhcbH-uLmBv86-cf-123" vertex="1">
          <mxGeometry y="294" width="265" height="26" as="geometry" />
        </mxCell>
        <mxCell id="5QHpmhcbH-uLmBv86-cf-110" value="&lt;div&gt;EditorBusinessLogicalLayer&lt;br&gt;&lt;/div&gt;" style="swimlane;fontStyle=1;align=center;verticalAlign=top;childLayout=stackLayout;horizontal=1;startSize=26;horizontalStack=0;resizeParent=1;resizeParentMax=0;resizeLast=0;collapsible=1;marginBottom=0;whiteSpace=wrap;html=1;movable=1;resizable=1;rotatable=1;deletable=1;editable=1;locked=0;connectable=1;" parent="1" vertex="1">
          <mxGeometry x="369" y="411" width="252" height="164" as="geometry" />
        </mxCell>
        <mxCell id="5QHpmhcbH-uLmBv86-cf-111" value="- databaseAccess: DatabaseAccess" style="text;strokeColor=none;fillColor=none;align=left;verticalAlign=top;spacingLeft=4;spacingRight=4;overflow=hidden;rotatable=0;points=[[0,0.5],[1,0.5]];portConstraint=eastwest;whiteSpace=wrap;html=1;" parent="5QHpmhcbH-uLmBv86-cf-110" vertex="1">
          <mxGeometry y="26" width="252" height="26" as="geometry" />
        </mxCell>
        <mxCell id="5QHpmhcbH-uLmBv86-cf-112" value="" style="line;strokeWidth=1;fillColor=none;align=left;verticalAlign=middle;spacingTop=-1;spacingLeft=3;spacingRight=3;rotatable=0;labelPosition=right;points=[];portConstraint=eastwest;strokeColor=inherit;" parent="5QHpmhcbH-uLmBv86-cf-110" vertex="1">
          <mxGeometry y="52" width="252" height="8" as="geometry" />
        </mxCell>
        <mxCell id="5QHpmhcbH-uLmBv86-cf-115" value="&lt;div&gt;+ renderModel(Model3D): void&lt;/div&gt;" style="text;strokeColor=none;fillColor=none;align=left;verticalAlign=top;spacingLeft=4;spacingRight=4;overflow=hidden;rotatable=0;points=[[0,0.5],[1,0.5]];portConstraint=eastwest;whiteSpace=wrap;html=1;" parent="5QHpmhcbH-uLmBv86-cf-110" vertex="1">
          <mxGeometry y="60" width="252" height="26" as="geometry" />
        </mxCell>
        <mxCell id="5QHpmhcbH-uLmBv86-cf-116" value="&lt;div&gt;&lt;span style=&quot;background-color: initial;&quot;&gt;+ renderAllModels(): void&lt;/span&gt;&lt;br&gt;&lt;/div&gt;" style="text;strokeColor=none;fillColor=none;align=left;verticalAlign=top;spacingLeft=4;spacingRight=4;overflow=hidden;rotatable=0;points=[[0,0.5],[1,0.5]];portConstraint=eastwest;whiteSpace=wrap;html=1;" parent="5QHpmhcbH-uLmBv86-cf-110" vertex="1">
          <mxGeometry y="86" width="252" height="26" as="geometry" />
        </mxCell>
        <mxCell id="5QHpmhcbH-uLmBv86-cf-114" value="&lt;div&gt;&lt;span style=&quot;background-color: initial;&quot;&gt;+ getAllTextures(): Collection&amp;lt;Texture&amp;gt;&lt;/span&gt;&lt;br&gt;&lt;/div&gt;&lt;div&gt;&lt;br&gt;&lt;/div&gt;" style="text;strokeColor=none;fillColor=none;align=left;verticalAlign=top;spacingLeft=4;spacingRight=4;overflow=hidden;rotatable=0;points=[[0,0.5],[1,0.5]];portConstraint=eastwest;whiteSpace=wrap;html=1;" parent="5QHpmhcbH-uLmBv86-cf-110" vertex="1">
          <mxGeometry y="112" width="252" height="26" as="geometry" />
        </mxCell>
        <mxCell id="5QHpmhcbH-uLmBv86-cf-113" value="&lt;div&gt;+ getAllModels(): Collection&amp;lt;Model3D&amp;gt;&lt;/div&gt;&lt;div&gt;&lt;br&gt;&lt;/div&gt;" style="text;strokeColor=none;fillColor=none;align=left;verticalAlign=top;spacingLeft=4;spacingRight=4;overflow=hidden;rotatable=0;points=[[0,0.5],[1,0.5]];portConstraint=eastwest;whiteSpace=wrap;html=1;" parent="5QHpmhcbH-uLmBv86-cf-110" vertex="1">
          <mxGeometry y="138" width="252" height="26" as="geometry" />
        </mxCell>
        <mxCell id="5QHpmhcbH-uLmBv86-cf-155" style="edgeStyle=orthogonalEdgeStyle;rounded=0;orthogonalLoop=1;jettySize=auto;html=1;entryX=1.001;entryY=0.663;entryDx=0;entryDy=0;entryPerimeter=0;endArrow=open;endFill=0;endSize=12;exitX=1;exitY=0.5;exitDx=0;exitDy=0;" parent="1" source="5QHpmhcbH-uLmBv86-cf-142" target="5QHpmhcbH-uLmBv86-cf-115" edge="1">
          <mxGeometry relative="1" as="geometry">
            <Array as="points">
              <mxPoint x="769" y="327" />
              <mxPoint x="769" y="488" />
            </Array>
          </mxGeometry>
        </mxCell>
        <mxCell id="5QHpmhcbH-uLmBv86-cf-154" style="edgeStyle=orthogonalEdgeStyle;rounded=0;orthogonalLoop=1;jettySize=auto;html=1;entryX=1;entryY=0.5;entryDx=0;entryDy=0;endArrow=open;endFill=0;endSize=12;exitX=1;exitY=0.5;exitDx=0;exitDy=0;" parent="1" source="5QHpmhcbH-uLmBv86-cf-141" target="5QHpmhcbH-uLmBv86-cf-116" edge="1">
          <mxGeometry relative="1" as="geometry">
            <Array as="points">
              <mxPoint x="778" y="301" />
              <mxPoint x="778" y="510" />
            </Array>
          </mxGeometry>
        </mxCell>
        <mxCell id="5QHpmhcbH-uLmBv86-cf-145" style="edgeStyle=orthogonalEdgeStyle;rounded=0;orthogonalLoop=1;jettySize=auto;html=1;entryX=0.5;entryY=0;entryDx=0;entryDy=0;endArrow=open;endFill=0;dashed=1;endSize=12;" parent="1" source="5QHpmhcbH-uLmBv86-cf-126" target="5QHpmhcbH-uLmBv86-cf-110" edge="1">
          <mxGeometry relative="1" as="geometry">
            <Array as="points">
              <mxPoint x="478" y="97" />
              <mxPoint x="478" y="385" />
              <mxPoint x="495" y="385" />
            </Array>
          </mxGeometry>
        </mxCell>
        <mxCell id="GU7tplVxRM9TkL9zqMjE-34" value="«interface»&lt;br&gt;&lt;span style=&quot;text-align: left; text-wrap: nowrap;&quot;&gt;&lt;b&gt;ITextureEditor&lt;/b&gt;&lt;/span&gt;" style="html=1;whiteSpace=wrap;" vertex="1" parent="1">
          <mxGeometry x="43" y="228" width="104" height="50" as="geometry" />
        </mxCell>
        <mxCell id="GU7tplVxRM9TkL9zqMjE-37" value="" style="group" vertex="1" connectable="0" parent="1">
          <mxGeometry x="18" y="367" width="788" height="287" as="geometry" />
        </mxCell>
        <mxCell id="5QHpmhcbH-uLmBv86-cf-8" value="" style="group;movable=1;resizable=1;rotatable=1;deletable=1;editable=1;locked=0;connectable=1;strokeColor=default;container=0;" parent="GU7tplVxRM9TkL9zqMjE-37" vertex="1" connectable="0">
          <mxGeometry width="788" height="287" as="geometry" />
        </mxCell>
        <mxCell id="5QHpmhcbH-uLmBv86-cf-10" value="&lt;h1 style=&quot;margin-top: 0px;&quot;&gt;Business-logic layer&lt;/h1&gt;" style="text;html=1;whiteSpace=wrap;overflow=hidden;rounded=0;" parent="GU7tplVxRM9TkL9zqMjE-37" vertex="1">
          <mxGeometry width="267.65555555555557" height="60.42105263157895" as="geometry" />
        </mxCell>
        <mxCell id="GU7tplVxRM9TkL9zqMjE-48" style="edgeStyle=orthogonalEdgeStyle;rounded=0;orthogonalLoop=1;jettySize=auto;html=1;entryX=1;entryY=0.5;entryDx=0;entryDy=0;exitX=0.02;exitY=0.072;exitDx=0;exitDy=0;exitPerimeter=0;endArrow=block;endFill=0;dashed=1;endSize=12;" edge="1" parent="1" source="GU7tplVxRM9TkL9zqMjE-2" target="GU7tplVxRM9TkL9zqMjE-35">
          <mxGeometry relative="1" as="geometry" />
        </mxCell>
        <mxCell id="GU7tplVxRM9TkL9zqMjE-2" value="&lt;div&gt;&lt;span style=&quot;text-align: left; text-wrap: nowrap;&quot;&gt;ModelEditor&lt;/span&gt;&lt;br&gt;&lt;/div&gt;" style="swimlane;fontStyle=1;align=center;verticalAlign=top;childLayout=stackLayout;horizontal=1;startSize=26;horizontalStack=0;resizeParent=1;resizeParentMax=0;resizeLast=0;collapsible=1;marginBottom=0;whiteSpace=wrap;html=1;movable=1;resizable=1;rotatable=1;deletable=1;editable=1;locked=0;connectable=1;" vertex="1" parent="1">
          <mxGeometry x="178" y="-39" width="264" height="242" as="geometry" />
        </mxCell>
        <mxCell id="GU7tplVxRM9TkL9zqMjE-4" value="&lt;div style=&quot;text-wrap: nowrap;&quot;&gt;- businessLogicalLayer: BusinessLogicalLayer&lt;/div&gt;" style="text;strokeColor=none;fillColor=none;align=left;verticalAlign=top;spacingLeft=4;spacingRight=4;overflow=hidden;rotatable=0;points=[[0,0.5],[1,0.5]];portConstraint=eastwest;whiteSpace=wrap;html=1;" vertex="1" parent="GU7tplVxRM9TkL9zqMjE-2">
          <mxGeometry y="26" width="264" height="26" as="geometry" />
        </mxCell>
        <mxCell id="GU7tplVxRM9TkL9zqMjE-5" value="&lt;div&gt;&lt;span style=&quot;text-wrap: nowrap;&quot;&gt;- model: Model3D&lt;/span&gt;&lt;br&gt;&lt;/div&gt;&lt;div&gt;&lt;br&gt;&lt;/div&gt;" style="text;strokeColor=none;fillColor=none;align=left;verticalAlign=top;spacingLeft=4;spacingRight=4;overflow=hidden;rotatable=0;points=[[0,0.5],[1,0.5]];portConstraint=eastwest;whiteSpace=wrap;html=1;" vertex="1" parent="GU7tplVxRM9TkL9zqMjE-2">
          <mxGeometry y="52" width="264" height="26" as="geometry" />
        </mxCell>
        <mxCell id="GU7tplVxRM9TkL9zqMjE-6" value="&lt;div style=&quot;text-wrap: nowrap;&quot;&gt;&lt;div&gt;- textures: ArrayList&amp;lt;Texture&amp;gt;&lt;/div&gt;&lt;/div&gt;" style="text;strokeColor=none;fillColor=none;align=left;verticalAlign=top;spacingLeft=4;spacingRight=4;overflow=hidden;rotatable=0;points=[[0,0.5],[1,0.5]];portConstraint=eastwest;whiteSpace=wrap;html=1;" vertex="1" parent="GU7tplVxRM9TkL9zqMjE-2">
          <mxGeometry y="78" width="264" height="26" as="geometry" />
        </mxCell>
        <mxCell id="GU7tplVxRM9TkL9zqMjE-7" value="" style="line;strokeWidth=1;fillColor=none;align=left;verticalAlign=middle;spacingTop=-1;spacingLeft=3;spacingRight=3;rotatable=0;labelPosition=right;points=[];portConstraint=eastwest;strokeColor=inherit;" vertex="1" parent="GU7tplVxRM9TkL9zqMjE-2">
          <mxGeometry y="104" width="264" height="8" as="geometry" />
        </mxCell>
        <mxCell id="GU7tplVxRM9TkL9zqMjE-9" value="&lt;div style=&quot;text-wrap: nowrap;&quot;&gt;+ createModel(): Model3D&lt;/div&gt;" style="text;strokeColor=none;fillColor=none;align=left;verticalAlign=top;spacingLeft=4;spacingRight=4;overflow=hidden;rotatable=0;points=[[0,0.5],[1,0.5]];portConstraint=eastwest;whiteSpace=wrap;html=1;" vertex="1" parent="GU7tplVxRM9TkL9zqMjE-2">
          <mxGeometry y="112" width="264" height="26" as="geometry" />
        </mxCell>
        <mxCell id="GU7tplVxRM9TkL9zqMjE-10" value="&lt;div style=&quot;text-wrap: nowrap;&quot;&gt;&lt;div&gt;+ editModel(Model3D): Model3D&lt;/div&gt;&lt;/div&gt;" style="text;strokeColor=none;fillColor=none;align=left;verticalAlign=top;spacingLeft=4;spacingRight=4;overflow=hidden;rotatable=0;points=[[0,0.5],[1,0.5]];portConstraint=eastwest;whiteSpace=wrap;html=1;" vertex="1" parent="GU7tplVxRM9TkL9zqMjE-2">
          <mxGeometry y="138" width="264" height="26" as="geometry" />
        </mxCell>
        <mxCell id="GU7tplVxRM9TkL9zqMjE-11" value="&lt;div style=&quot;text-wrap: nowrap;&quot;&gt;+ saveModel(): boolean&lt;/div&gt;" style="text;strokeColor=none;fillColor=none;align=left;verticalAlign=top;spacingLeft=4;spacingRight=4;overflow=hidden;rotatable=0;points=[[0,0.5],[1,0.5]];portConstraint=eastwest;whiteSpace=wrap;html=1;" vertex="1" parent="GU7tplVxRM9TkL9zqMjE-2">
          <mxGeometry y="164" width="264" height="26" as="geometry" />
        </mxCell>
        <mxCell id="GU7tplVxRM9TkL9zqMjE-12" value="&lt;div style=&quot;text-wrap: nowrap;&quot;&gt;+ addTexture(Texture): boolean&lt;/div&gt;" style="text;strokeColor=none;fillColor=none;align=left;verticalAlign=top;spacingLeft=4;spacingRight=4;overflow=hidden;rotatable=0;points=[[0,0.5],[1,0.5]];portConstraint=eastwest;whiteSpace=wrap;html=1;" vertex="1" parent="GU7tplVxRM9TkL9zqMjE-2">
          <mxGeometry y="190" width="264" height="26" as="geometry" />
        </mxCell>
        <mxCell id="GU7tplVxRM9TkL9zqMjE-13" value="&lt;div&gt;+ removeTexture(int): void&lt;/div&gt;" style="text;strokeColor=none;fillColor=none;align=left;verticalAlign=top;spacingLeft=4;spacingRight=4;overflow=hidden;rotatable=0;points=[[0,0.5],[1,0.5]];portConstraint=eastwest;whiteSpace=wrap;html=1;" vertex="1" parent="GU7tplVxRM9TkL9zqMjE-2">
          <mxGeometry y="216" width="264" height="26" as="geometry" />
        </mxCell>
        <mxCell id="GU7tplVxRM9TkL9zqMjE-49" style="edgeStyle=orthogonalEdgeStyle;rounded=0;orthogonalLoop=1;jettySize=auto;html=1;entryX=1;entryY=0.5;entryDx=0;entryDy=0;exitX=0.002;exitY=0.14;exitDx=0;exitDy=0;exitPerimeter=0;endSize=12;endArrow=block;endFill=0;dashed=1;" edge="1" parent="1" source="GU7tplVxRM9TkL9zqMjE-17" target="GU7tplVxRM9TkL9zqMjE-34">
          <mxGeometry relative="1" as="geometry" />
        </mxCell>
        <mxCell id="GU7tplVxRM9TkL9zqMjE-17" value="&lt;div&gt;&lt;span style=&quot;text-align: left; text-wrap: nowrap;&quot;&gt;TextureEditor&lt;/span&gt;&lt;br&gt;&lt;/div&gt;" style="swimlane;fontStyle=1;align=center;verticalAlign=top;childLayout=stackLayout;horizontal=1;startSize=26;horizontalStack=0;resizeParent=1;resizeParentMax=0;resizeLast=0;collapsible=1;marginBottom=0;whiteSpace=wrap;html=1;movable=1;resizable=1;rotatable=1;deletable=1;editable=1;locked=0;connectable=1;" vertex="1" parent="1">
          <mxGeometry x="177" y="239" width="265" height="104" as="geometry" />
        </mxCell>
        <mxCell id="GU7tplVxRM9TkL9zqMjE-28" value="&lt;div style=&quot;text-wrap: nowrap;&quot;&gt;&lt;span style=&quot;background-color: initial;&quot;&gt;+ createTexture():&amp;nbsp;&lt;/span&gt;&lt;span style=&quot;background-color: initial;&quot;&gt;Texture&lt;/span&gt;&lt;/div&gt;" style="text;strokeColor=none;fillColor=none;align=left;verticalAlign=top;spacingLeft=4;spacingRight=4;overflow=hidden;rotatable=0;points=[[0,0.5],[1,0.5]];portConstraint=eastwest;whiteSpace=wrap;html=1;" vertex="1" parent="GU7tplVxRM9TkL9zqMjE-17">
          <mxGeometry y="26" width="265" height="26" as="geometry" />
        </mxCell>
        <mxCell id="GU7tplVxRM9TkL9zqMjE-29" value="&lt;div style=&quot;text-wrap: nowrap;&quot;&gt;+ editTexture(Texture):&amp;nbsp;&lt;span style=&quot;background-color: initial;&quot;&gt;Texture&lt;/span&gt;&lt;span style=&quot;background-color: initial;&quot;&gt;&amp;nbsp;&lt;/span&gt;&lt;/div&gt;" style="text;strokeColor=none;fillColor=none;align=left;verticalAlign=top;spacingLeft=4;spacingRight=4;overflow=hidden;rotatable=0;points=[[0,0.5],[1,0.5]];portConstraint=eastwest;whiteSpace=wrap;html=1;" vertex="1" parent="GU7tplVxRM9TkL9zqMjE-17">
          <mxGeometry y="52" width="265" height="26" as="geometry" />
        </mxCell>
        <mxCell id="GU7tplVxRM9TkL9zqMjE-30" value="&lt;div&gt;+ saveTexture():&amp;nbsp;&lt;span style=&quot;background-color: initial;&quot;&gt;boolean&lt;/span&gt;&lt;/div&gt;" style="text;strokeColor=none;fillColor=none;align=left;verticalAlign=top;spacingLeft=4;spacingRight=4;overflow=hidden;rotatable=0;points=[[0,0.5],[1,0.5]];portConstraint=eastwest;whiteSpace=wrap;html=1;" vertex="1" parent="GU7tplVxRM9TkL9zqMjE-17">
          <mxGeometry y="78" width="265" height="26" as="geometry" />
        </mxCell>
        <mxCell id="GU7tplVxRM9TkL9zqMjE-35" value="«interface»&lt;br&gt;&lt;span style=&quot;text-align: left; text-wrap: nowrap;&quot;&gt;&lt;b&gt;IModelEditor&lt;/b&gt;&lt;/span&gt;" style="html=1;whiteSpace=wrap;" vertex="1" parent="1">
          <mxGeometry x="43" y="-46" width="104" height="50" as="geometry" />
        </mxCell>
        <mxCell id="5QHpmhcbH-uLmBv86-cf-130" value="«interface»&lt;br&gt;&lt;span style=&quot;font-weight: 700;&quot;&gt;UILayer&lt;/span&gt;" style="html=1;whiteSpace=wrap;" parent="1" vertex="1">
          <mxGeometry x="571.5" y="-85" width="104" height="50" as="geometry" />
        </mxCell>
        <mxCell id="GU7tplVxRM9TkL9zqMjE-50" style="edgeStyle=orthogonalEdgeStyle;rounded=0;orthogonalLoop=1;jettySize=auto;html=1;entryX=1;entryY=0.5;entryDx=0;entryDy=0;endArrow=open;endFill=0;dashed=1;" edge="1" parent="1" source="GU7tplVxRM9TkL9zqMjE-4" target="5QHpmhcbH-uLmBv86-cf-126">
          <mxGeometry relative="1" as="geometry" />
        </mxCell>
        <mxCell id="GU7tplVxRM9TkL9zqMjE-51" style="edgeStyle=orthogonalEdgeStyle;rounded=0;orthogonalLoop=1;jettySize=auto;html=1;entryX=1;entryY=0.5;entryDx=0;entryDy=0;endArrow=open;endFill=0;endSize=12;dashed=1;" edge="1" parent="1" source="GU7tplVxRM9TkL9zqMjE-12" target="GU7tplVxRM9TkL9zqMjE-28">
          <mxGeometry relative="1" as="geometry">
            <Array as="points">
              <mxPoint x="463" y="164" />
              <mxPoint x="463" y="278" />
            </Array>
          </mxGeometry>
        </mxCell>
      </root>
    </mxGraphModel>
  </diagram>
</mxfile>
